<svg id="Layer_1" data-name="Layer 1" xmlns="http://www.w3.org/2000/svg" viewBox="0 0 38.98 31.68">
  <defs>
    <style>
      .cls-1 {
      fill: #254A6D;
      }
    </style>
  </defs>
  <title>soc-twitter</title>
  <path class="cls-1" d="M39.42,3.93a15.87,15.87,0,0,1-4.59,1.26A8,8,0,0,0,38.34.77a16,16,0,0,1-5.08,1.94A8,8,0,0,0,19.64,10,22.71,22.71,0,0,1,3.15,1.64,8,8,0,0,0,5.63,12.32a8,8,0,0,1-3.62-1s0,0.07,0,.1a8,8,0,0,0,6.41,7.84,8,8,0,0,1-3.61.14A8,8,0,0,0,12.28,25a16,16,0,0,1-9.93,3.42,16.16,16.16,0,0,1-1.91-.11A22.65,22.65,0,0,0,12.7,31.86c14.71,0,22.75-12.19,22.75-22.75,0-.35,0-0.69,0-1A16.22,16.22,0,0,0,39.42,3.93Z" transform="translate(-0.44 -0.18)"/>
</svg>
