<svg id="Layer_1" data-name="Layer 1" xmlns="http://www.w3.org/2000/svg" viewBox="0 0 32.52 29.22">
  <defs>
    <style>
      .cls-1 {
        fill: #254A6D;
      }
    </style>
  </defs>
  <title>googleplus</title>
  <g>
    <path class="cls-1" d="M31.85,15.17h-4.9v-4.9a0.68,0.68,0,0,0-.68-0.68h-1.4a0.68,0.68,0,0,0-.68.68v4.9h-4.9a0.68,0.68,0,0,0-.68.68v1.4a0.68,0.68,0,0,0,.68.68h4.9v4.91a0.68,0.68,0,0,0,.68.68h1.4a0.68,0.68,0,0,0,.68-0.68V17.92h4.9a0.68,0.68,0,0,0,.68-0.68v-1.4A0.68,0.68,0,0,0,31.85,15.17Z" transform="translate(0 -3.31)"/>
    <path class="cls-1" d="M15.37,19.47a5.74,5.74,0,0,1-2-2.13c0-.6.05-0.89,1.4-1.93a6.43,6.43,0,0,0,2.69-5,6.71,6.71,0,0,0-1.41-4.31h0.69a0.67,0.67,0,0,0,.4-0.13l1.93-1.4a0.68,0.68,0,0,0-.4-1.23H10.05a8.75,8.75,0,0,0-2.84.49C4.06,4.88,1.87,7.56,1.87,10.31a6.93,6.93,0,0,0,7.05,6.94,3.67,3.67,0,0,0-.12.91,3.41,3.41,0,0,0,.47,1.72H9.15c-3.85,0-7.32,1.89-8.64,4.7A5.15,5.15,0,0,0,0,26.78a4.13,4.13,0,0,0,.54,2c0.83,1.48,2.61,2.63,5,3.24a16.21,16.21,0,0,0,4,.47A12.69,12.69,0,0,0,13,32c3.42-1,5.63-3.51,5.63-6.42A6.68,6.68,0,0,0,15.37,19.47ZM4.47,25.85C4.47,23.82,7,22,10,22h0.08a6.59,6.59,0,0,1,1.85.28l0.58,0.4c1.36,0.93,2.26,1.54,2.51,2.52a3.19,3.19,0,0,1,.09.73c0,2.53-1.88,3.81-5.6,3.81C6.68,29.79,4.47,28.06,4.47,25.85ZM7.14,6.69a2.26,2.26,0,0,1,1.74-.8H9c1.91,0.06,3.73,2.18,4.07,4.74a4.61,4.61,0,0,1-.85,3.6,2.25,2.25,0,0,1-1.76.8h0C8.52,15,6.65,12.76,6.32,10.21A4.46,4.46,0,0,1,7.14,6.69Z" transform="translate(0 -3.31)"/>
  </g>
</svg>
