<svg id="Layer_1" data-name="Layer 1" xmlns="http://www.w3.org/2000/svg" viewBox="0 0 119.92 22.02">
    <defs>
        <style>
            .blue {
            fill: #2969a1;
            }

            .red {
            fill: #b24d57;
            }

            .live {
            fill: #93cdec;
            }

            .lt-blue {
            fill: #70a7d6;
            }

            .white {
            fill: #fff;
            }

            .ltr-blue {
            fill: #abc7e9;
            }
        </style>
    </defs>
    <title>marketplacelive</title>
    <!--                        Polygons-->
    <polygon class="blue" points="115.53 0 113.75 0 113.73 0 115.48 4.22 116.34 6.3 117 3.24 117.69 0 115.53 0"/>
    <polygon class="red" points="119.42 5.67 117.97 4.22 117.19 7.87 119.42 5.67"/>
    <polygon class="live" points="119.88 14.82 116.17 8.88 115.45 7.72 115.43 9.62 115.4 12.15 115.36 15.81 119.91 14.91 119.92 14.91 119.88 14.82"/>
    <polygon class="lt-blue" points="111.25 3.25 107.96 7.59 113.83 11.19 113.83 11.19 111.25 3.25"/>
    <!--                        Marketplace-->
    <path class="white" d="M0,18.5H1.26l0.64-8H0.63V9.68H2.94L5.73,16c0.12,0.31.19,0.56,0.19,0.56h0A4.76,4.76,0,0,1,6.15,16L8.94,9.68h2.3v0.79H10l0.63,8h1.26v0.79H8.44V18.5H9.67L9.15,11.86a6.16,6.16,0,0,1,0-.68h0s-0.11.41-.21,0.64L6.38,17.46H5.5L2.93,11.82a5.45,5.45,0,0,1-.19-0.64h0a6.16,6.16,0,0,1,0,.68L2.2,18.5H3.43v0.79H0V18.5Z"/>
    <path class="white" d="M17,15.08h0.45V14.79a1.5,1.5,0,0,0-1.65-1.74,3.47,3.47,0,0,0-2,.67L13.4,13a4.1,4.1,0,0,1,2.49-.78,2.28,2.28,0,0,1,2.53,2.58v3.39a0.27,0.27,0,0,0,.3.3h0.75v0.77H18.35a0.68,0.68,0,0,1-.82-0.75V18.41a3,3,0,0,1,0-.53h0a2.55,2.55,0,0,1-2.35,1.57,2.09,2.09,0,0,1-2.3-2.05C12.9,15.17,15.88,15.08,17,15.08Zm-1.71,3.61a2.41,2.41,0,0,0,2.16-2.58V15.77h-0.4c-0.56,0-3.24-.05-3.24,1.53A1.38,1.38,0,0,0,15.33,18.69Z"/>
    <path class="white" d="M20.54,18.52h1.07v-5a0.27,0.27,0,0,0-.3-0.3H20.38V12.41h1.3a0.7,0.7,0,0,1,.83.78v0.46a5,5,0,0,1,0,.52h0a2.37,2.37,0,0,1,2.17-1.83,2.1,2.1,0,0,1,.38,0V13.3a2.68,2.68,0,0,0-.36,0c-1.54,0-2.17,1.74-2.17,3.1v2.15H23.6v0.77H20.54V18.52Z"/>
    <path class="white" d="M25.64,18.52H26.8V10.44H25.57V9.68h2.16v5.41h1.08l1.63-1.91h-1V12.41h3v0.77h-1l-1.89,2.19v0a1.17,1.17,0,0,1,.48.55l1.37,2.3a0.56,0.56,0,0,0,.63.29H32.5v0.77H31.74a1.07,1.07,0,0,1-1.19-.68l-1.46-2.47a0.66,0.66,0,0,0-.67-0.29H27.73v2.68h1.09v0.77H25.64V18.52Z"/>
    <path class="white" d="M36.72,12.25a2.88,2.88,0,0,1,2.88,3.17,3.88,3.88,0,0,1,0,.44H34.28a2.62,2.62,0,0,0,2.67,2.76A3.22,3.22,0,0,0,39,17.8l0.42,0.7a3.9,3.9,0,0,1-2.54,1,3.48,3.48,0,0,1-3.6-3.6A3.36,3.36,0,0,1,36.72,12.25Zm1.91,2.93A2,2,0,0,0,36.69,13a2.36,2.36,0,0,0-2.37,2.15h4.31Z"/>
    <path class="white" d="M41.71,13.18H40.48V12.41h1.24v-1.9h0.92v1.9h1.74v0.77H42.64V16.7c0,1.61,1,1.83,1.56,1.83a1.6,1.6,0,0,0,.31,0v0.81a2.67,2.67,0,0,1-.4,0,2.24,2.24,0,0,1-2.41-2.56V13.18Z"/>
    <path class="white" d="M46.45,21.26V13.48a0.27,0.27,0,0,0-.3-0.3H45.22V12.41h1.3a0.67,0.67,0,0,1,.82.72v0.05a2.7,2.7,0,0,1,0,.48h0a2.52,2.52,0,0,1,2.41-1.42c1.85,0,3,1.48,3,3.61s-1.3,3.6-3.09,3.6a2.52,2.52,0,0,1-2.27-1.37h0a4,4,0,0,1,0,.6v2.57h1.16V22H45.29V21.26h1.16Zm3.09-2.64c1.22,0,2.23-1,2.23-2.76s-0.9-2.76-2.19-2.76-2.21.82-2.21,2.78C47.37,17.25,48.13,18.62,49.54,18.62Z"/>
    <path class="white" d="M54.6,10.44H53.38V9.68h2.15V17.5a0.82,0.82,0,0,0,.78,1,2.16,2.16,0,0,0,.38,0v0.79a3.89,3.89,0,0,1-.53,0,1.47,1.47,0,0,1-1.56-1.76V10.44Z"/>
    <path class="white" d="M61.75,15.08H62.2V14.79a1.5,1.5,0,0,0-1.65-1.74,3.47,3.47,0,0,0-2,.67L58.12,13a4.1,4.1,0,0,1,2.49-.78,2.28,2.28,0,0,1,2.53,2.58v3.39a0.27,0.27,0,0,0,.3.3h0.75v0.77H63.06a0.68,0.68,0,0,1-.82-0.75V18.41a3,3,0,0,1,0-.53h0a2.55,2.55,0,0,1-2.35,1.57,2.09,2.09,0,0,1-2.3-2.05C57.61,15.17,60.59,15.08,61.75,15.08ZM60,18.69A2.41,2.41,0,0,0,62.2,16.1V15.77h-0.4c-0.56,0-3.24-.05-3.24,1.53A1.38,1.38,0,0,0,60,18.69Z"/>
    <path class="white" d="M68.78,12.25c0.86,0,2.54.36,2.54,1.49v0.75H70.46V14c0-.62-1-0.9-1.67-0.9a2.6,2.6,0,0,0-2.65,2.76,2.64,2.64,0,0,0,2.69,2.78,3.31,3.31,0,0,0,2.26-.94l0.4,0.71a3.9,3.9,0,0,1-2.68,1.07,3.49,3.49,0,0,1-3.62-3.58A3.52,3.52,0,0,1,68.78,12.25Z"/>
    <path class="white" d="M76.11,12.25A2.88,2.88,0,0,1,79,15.42a3.88,3.88,0,0,1,0,.44H73.68a2.62,2.62,0,0,0,2.67,2.76,3.22,3.22,0,0,0,2.09-.82l0.42,0.7a3.9,3.9,0,0,1-2.54,1,3.48,3.48,0,0,1-3.6-3.6A3.36,3.36,0,0,1,76.11,12.25ZM78,15.17A2,2,0,0,0,76.08,13a2.36,2.36,0,0,0-2.37,2.15H78Z"/>
    <!--                        LIVE-->
    <path class="ltr-blue" d="M82.21,18.25h3.88l-0.14,1H81V9.88h1.18v8.37Z"/>
    <path class="ltr-blue" d="M89,19.29H87.78V9.88H89v9.41Z"/>
    <path class="ltr-blue" d="M94.8,19.29H93.52l-3-9.41h1.29L94.18,18l2.43-8.14h1.2Z"/>
    <path class="ltr-blue" d="M104.23,10.84h-3.71V14h3.21v1h-3.21v3.36h3.94v1H99.34V9.88h5Z"/>
</svg>