<svg id="svg2" xmlns="http://www.w3.org/2000/svg" viewBox="0 0 400.52 275.2">
  <defs>
    <style>
      .cls-1 {
      fill: #cb6469;      }
    </style>
  </defs>
  <title>1464378696_BT_message</title>
  <g id="layer1">
    <path id="rect3851" class="cls-1" d="M20.26,0a20,20,0,0,0-20,20c-0.16,77.11,0,154.53,0,231.94A20.34,20.34,0,0,0,5.7,269.2,20.34,20.34,0,0,0,22.85,275H377.63a20,20,0,0,0,22.63-23.12c0.09-77,0-155.7,0-231.87a20,20,0,0,0-20-20h-360ZM51.35,40H349.16c-12.53,10.27-30.39,24.46-50.25,38.75-18.66,13.42-38.89,26.74-57,36.38S207.05,130,200.26,130s-23.49-5.24-41.62-14.87-38.38-23-57-36.37C81.74,64.46,63.88,50.27,51.35,40ZM40.26,82.44c11,8.75,24,18.74,38,28.78,16.07,11.56,33.37,23.22,50.5,33.09l-88.5,69.53V82.44Zm320,0V213.84l-88.5-69.53c17.13-9.88,34.43-21.53,50.5-33.09C336.22,101.17,349.24,91.18,360.26,82.44ZM168.66,163.81c10.49,3.84,20.91,6.19,31.59,6.19s21.1-2.35,31.59-6.19L322.44,235H78.07Z"/>
  </g>
</svg>