<svg id="Layer_1" data-name="Layer 1" xmlns="http://www.w3.org/2000/svg" viewBox="0 0 31.9 31.76">
  <defs>
    <style>
      .cls-1 {
        fill:  #cb6469;
      }
    </style>
  </defs>
  <title>soc-linkedin</title>
  <g id="black">
    <g id="linkedin">
      <path class="cls-1" d="M6.69,31.87v-21H0.2v21H6.69Zm0-28.45A3.19,3.19,0,0,0,3.37.11,3.2,3.2,0,0,0,0,3.42,3.18,3.18,0,0,0,3.29,6.73h0A3.2,3.2,0,0,0,6.69,3.42ZM17.28,31.87v-12a4.87,4.87,0,0,1,.23-1.74,3.9,3.9,0,0,1,3.65-2.61c2.58,0,4.19,1.46,4.19,4.34v12H31.9V19.58c0-6.58-3.51-9.64-8.2-9.64a7.09,7.09,0,0,0-6.47,3.61l0-2.81H10.76c0.09,2,0,21.13,0,21.13h6.52Z" transform="translate(0 -0.11)"/>
    </g>
  </g>
</svg>
