<svg id="Layer_1" data-name="Layer 1" xmlns="http://www.w3.org/2000/svg" viewBox="0 0 32.25 32.25">
  <defs>
    <style>
      .cls-1 {
        fill: #b8d5e9;
      }
    </style>
  </defs>
  <title>soc-instagram</title>
  <g id="Flat_copy" data-name="Flat copy">
    <path class="cls-1" d="M28.22,0H4A4,4,0,0,0,0,4V28.22a4,4,0,0,0,4,4H28.22a4,4,0,0,0,4-4V4A4,4,0,0,0,28.22,0ZM16.15,9.79a6.38,6.38,0,0,1,6.48,6.27,6.38,6.38,0,0,1-6.48,6.27,6.38,6.38,0,0,1-6.47-6.27A6.38,6.38,0,0,1,16.15,9.79ZM28.22,27.21a0.87,0.87,0,0,1-1,1H5a0.87,0.87,0,0,1-1-1V13.1l2.51,0.55a9.41,9.41,0,0,0-.42,2.77,9.87,9.87,0,0,0,10,9.71,9.87,9.87,0,0,0,10-9.71,9.41,9.41,0,0,0-.42-2.77l2.46-.55V27.21Zm0-18.14a1,1,0,0,1-1,1h-4a1,1,0,0,1-1-1V5a1,1,0,0,1,1-1h4a1,1,0,0,1,1,1v4Z"/>
  </g>
</svg>
