<svg id="Layer_1" data-name="Layer 1" xmlns="http://www.w3.org/2000/svg" viewBox="0 0 39.42 32.04">
  <defs>
    <style>
      .cls-1 {
        fill: #b8d5e9;
      }
    </style>
  </defs>
  <title>soc-twitter</title>
  <path class="cls-1" d="M39.42,4.12a16.09,16.09,0,0,1-4.65,1.27A8.1,8.1,0,0,0,38.33.91a16.19,16.19,0,0,1-5.14,2,8.09,8.09,0,0,0-13.78,7.38c-6.72-.34-12.68-1.12-16.67-6C2,5.43,1.65,4.39,1.65,5.87a8.08,8.08,0,0,0,3.6,6.73,8.07,8.07,0,0,1-3.66-1s0,0.07,0,.1a8.09,8.09,0,0,0,6.49,7.93,8.13,8.13,0,0,1-2.13.28,8,8,0,0,1-1.52-.15A8.1,8.1,0,0,0,12,25.38a16.23,16.23,0,0,1-10,3.46A16.35,16.35,0,0,1,0,28.73a22.89,22.89,0,0,0,12.4,3.63c14.88,0,23-12.32,23-23q0-.53,0-1A16.38,16.38,0,0,0,39.42,4.12Z" transform="translate(0 -0.32)"/>
</svg>
