<svg id="Layer_1" data-name="Layer 1" xmlns="http://www.w3.org/2000/svg" viewBox="0 0 38.98 31.68"><defs><style>.cls-1{fill:#b8d5e9}</style></defs><title>soc-twitter</title><path class="cls-1" d="M39.42 3.93a15.87 15.87 0 0 1-4.59 1.26A8 8 0 0 0 38.34.77a16 16 0 0 1-5.08 1.94A8 8 0 0 0 19.64 10 22.71 22.71 0 0 1 3.15 1.64a8 8 0 0 0 2.48 10.68 8 8 0 0 1-3.62-1v.1a8 8 0 0 0 6.41 7.84 8 8 0 0 1-3.61.14 8 8 0 0 0 7.47 5.6 16 16 0 0 1-9.93 3.42 16.16 16.16 0 0 1-1.91-.11 22.65 22.65 0 0 0 12.26 3.55c14.71 0 22.75-12.19 22.75-22.75v-1a16.22 16.22 0 0 0 3.97-4.18z" transform="translate(-.44 -.18)"/></svg>