<svg id="Layer_1" data-name="Layer 1" xmlns="http://www.w3.org/2000/svg" viewBox="0 0 119.92 22.02"><defs><style>.blue{fill:#2969a1}.red{fill:#b24d57}.live{fill:#93cdec}.lt-blue{fill:#70a7d6}.white{fill:#fff}.ltr-blue{fill:#abc7e9}</style></defs><title>marketplacelive</title><path class="blue" d="M115.53 0h-1.8l1.75 4.22.86 2.08.66-3.06.69-3.24h-2.16z"/><path class="red" d="M119.42 5.67l-1.45-1.45-.78 3.65 2.23-2.2z"/><path class="live" d="M119.88 14.82l-3.71-5.94-.72-1.16-.02 1.9-.03 2.53-.04 3.66 4.55-.9h.01l-.04-.09z"/><path class="lt-blue" d="M111.25 3.25l-3.29 4.34 5.87 3.6-2.58-7.94z"/><path class="white" d="M0 18.5h1.26l.64-8H.63v-.82h2.31L5.73 16c.12.31.19.56.19.56a4.76 4.76 0 0 1 .23-.56l2.79-6.32h2.3v.79H10l.63 8h1.26v.79H8.44v-.76h1.23l-.52-6.64a6.16 6.16 0 0 1 0-.68s-.11.41-.21.64l-2.56 5.64H5.5l-2.57-5.64a5.45 5.45 0 0 1-.19-.64 6.16 6.16 0 0 1 0 .68L2.2 18.5h1.23v.79H0v-.79zM17 15.08h.45v-.29a1.5 1.5 0 0 0-1.65-1.74 3.47 3.47 0 0 0-2 .67l-.4-.72a4.1 4.1 0 0 1 2.49-.78 2.28 2.28 0 0 1 2.53 2.58v3.39a.27.27 0 0 0 .3.3h.75v.77h-1.12a.68.68 0 0 1-.82-.75v-.1a3 3 0 0 1 0-.53 2.55 2.55 0 0 1-2.35 1.57 2.09 2.09 0 0 1-2.3-2.05c.02-2.23 3-2.32 4.12-2.32zm-1.71 3.61a2.41 2.41 0 0 0 2.16-2.58v-.34h-.4c-.56 0-3.24-.05-3.24 1.53a1.38 1.38 0 0 0 1.52 1.39zM20.54 18.52h1.07v-5a.27.27 0 0 0-.3-.3h-.93v-.81h1.3a.7.7 0 0 1 .83.78v.46a5 5 0 0 1 0 .52 2.37 2.37 0 0 1 2.17-1.83 2.1 2.1 0 0 1 .38 0v.96a2.68 2.68 0 0 0-.36 0c-1.54 0-2.17 1.74-2.17 3.1v2.15h1.07v.77h-3.06v-.8zM25.64 18.52h1.16v-8.08h-1.23v-.76h2.16v5.41h1.08l1.63-1.91h-1v-.77h3v.77h-1l-1.89 2.19a1.17 1.17 0 0 1 .48.55l1.37 2.3a.56.56 0 0 0 .63.29h.47v.77h-.76a1.07 1.07 0 0 1-1.19-.68l-1.46-2.47a.66.66 0 0 0-.67-.29h-.69v2.68h1.09v.77h-3.18v-.77zM36.72 12.25a2.88 2.88 0 0 1 2.88 3.17 3.88 3.88 0 0 1 0 .44h-5.32a2.62 2.62 0 0 0 2.67 2.76A3.22 3.22 0 0 0 39 17.8l.42.7a3.9 3.9 0 0 1-2.54 1 3.48 3.48 0 0 1-3.6-3.6 3.36 3.36 0 0 1 3.44-3.65zm1.91 2.93A2 2 0 0 0 36.69 13a2.36 2.36 0 0 0-2.37 2.15h4.31zM41.71 13.18h-1.23v-.77h1.24v-1.9h.92v1.9h1.74v.77h-1.74v3.52c0 1.61 1 1.83 1.56 1.83a1.6 1.6 0 0 0 .31 0v.81a2.67 2.67 0 0 1-.4 0 2.24 2.24 0 0 1-2.41-2.56v-3.6zM46.45 21.26v-7.78a.27.27 0 0 0-.3-.3h-.93v-.77h1.3a.67.67 0 0 1 .82.72v.05a2.7 2.7 0 0 1 0 .48 2.52 2.52 0 0 1 2.41-1.42c1.85 0 3 1.48 3 3.61s-1.3 3.6-3.09 3.6a2.52 2.52 0 0 1-2.27-1.37 4 4 0 0 1 0 .6v2.57h1.16V22h-3.26v-.74h1.16zm3.09-2.64c1.22 0 2.23-1 2.23-2.76s-.9-2.76-2.19-2.76-2.21.82-2.21 2.78c0 1.37.76 2.74 2.17 2.74zM54.6 10.44h-1.22v-.76h2.15v7.82a.82.82 0 0 0 .78 1 2.16 2.16 0 0 0 .38 0v.79a3.89 3.89 0 0 1-.53 0 1.47 1.47 0 0 1-1.56-1.76v-7.09zM61.75 15.08h.45v-.29a1.5 1.5 0 0 0-1.65-1.74 3.47 3.47 0 0 0-2 .67l-.43-.72a4.1 4.1 0 0 1 2.49-.78 2.28 2.28 0 0 1 2.53 2.58v3.39a.27.27 0 0 0 .3.3h.75v.77h-1.13a.68.68 0 0 1-.82-.75v-.1a3 3 0 0 1 0-.53 2.55 2.55 0 0 1-2.35 1.57 2.09 2.09 0 0 1-2.3-2.05c.02-2.23 3-2.32 4.16-2.32zM60 18.69a2.41 2.41 0 0 0 2.2-2.59v-.33h-.4c-.56 0-3.24-.05-3.24 1.53A1.38 1.38 0 0 0 60 18.69zM68.78 12.25c.86 0 2.54.36 2.54 1.49v.75h-.86V14c0-.62-1-.9-1.67-.9a2.6 2.6 0 0 0-2.65 2.76 2.64 2.64 0 0 0 2.69 2.78 3.31 3.31 0 0 0 2.26-.94l.4.71a3.9 3.9 0 0 1-2.68 1.07 3.49 3.49 0 0 1-3.62-3.58 3.52 3.52 0 0 1 3.59-3.65zM76.11 12.25A2.88 2.88 0 0 1 79 15.42a3.88 3.88 0 0 1 0 .44h-5.32a2.62 2.62 0 0 0 2.67 2.76 3.22 3.22 0 0 0 2.09-.82l.42.7a3.9 3.9 0 0 1-2.54 1 3.48 3.48 0 0 1-3.6-3.6 3.36 3.36 0 0 1 3.39-3.65zM78 15.17A2 2 0 0 0 76.08 13a2.36 2.36 0 0 0-2.37 2.15H78z"/><path class="ltr-blue" d="M82.21 18.25h3.88l-.14 1H81V9.88h1.18v8.37zM89 19.29h-1.22V9.88H89v9.41zM94.8 19.29h-1.28l-3-9.41h1.29L94.18 18l2.43-8.14h1.2zM104.23 10.84h-3.71V14h3.21v1h-3.21v3.36h3.94v1h-5.12V9.88h5z"/></svg>